/* XPM */
static char *image[] = {
"64 64 424 2",
"   c None",
"00 c #1386b7",
"10 c #1382b3",
"20 c #137eae",
"30 c #1379aa",
"40 c #1375a6",
"50 c #1370a1",
"60 c #146c9e",
"70 c #146d9e",
"80 c #14689a",
"90 c #146597",
":0 c #126092",
";0 c #0a5b8f",
"A0 c #08598e",
"B0 c #0b5b8f",
"C0 c #136193",
"D0 c #146194",
"E0 c #08558a",
"F0 c #4d85ab",
"G0 c #d5e2eb",
"H0 c #c0d4e2",
"I0 c #30719d",
"J0 c #0d598c",
"K0 c #145e90",
"L0 c #296997",
"M0 c #f0f4f8",
"N0 c #0d5589",
"O0 c #155a8d",
"P0 c #145a8d",
"Q0 c #5283a8",
"R0 c #6490b1",
"S0 c #16588b",
"T0 c #0a5085",
"U0 c #1c5c8d",
"V0 c #80a4bf",
"W0 c #1a5b8c",
"X0 c #145789",
"Y0 c #1c598a",
"Z0 c #99b5ca",
"a0 c #084a80",
"b0 c #115184",
"c0 c #0b4c81",
"d0 c #25608f",
"e0 c #135285",
"f0 c #0b4d81",
"g0 c #04487e",
"h0 c #d1dee7",
"i0 c #06497f",
"j0 c #145386",
"k0 c #0d4a7f",
"l0 c #acc1d3",
"m0 c #114d81",
"n0 c #07467c",
"o0 c #d5dfe9",
"p0 c #678eae",
"q0 c #003d75",
"r0 c #e9eff3",
"s0 c #b6c8d8",
"t0 c #134f82",
"u0 c #145083",
"v0 c #205686",
"w0 c #054177",
"x0 c #084379",
"y0 c #b4c6d6",
"z0 c #074278",
"01 c #144d7f",
"11 c #8ca6bf",
"21 c #abbed0",
"31 c #7d9ab7",
"41 c #6185a7",
"51 c #063e74",
"61 c #14497c",
"71 c #13487a",
"81 c #134578",
"91 c #cbd6e2",
":1 c #53789c",
";1 c #0f4276",
"A1 c #eff2f6",
"B1 c #9cb2c6",
"C1 c #0e4276",
"D1 c #104377",
"E1 c #144679",
"F1 c #05376e",
"G1 c #466b93",
"H1 c #0c3d72",
"I1 c #fafbfc",
"J1 c #ffffff",
"K1 c #e3e9ee",
"L1 c #3a628c",
"M1 c #08396f",
"N1 c #144376",
"O1 c #174375",
"P1 c #869eb7",
"Q1 c #134073",
"R1 c #c0cdd9",
"S1 c #829ab5",
"T1 c #09376c",
"U1 c #123f72",
"V1 c #144073",
"W1 c #113d6e",
"X1 c #143e71",
"Y1 c #0c376c",
"Z1 c #7a92ae",
"a1 c #f7f8fa",
"b1 c #0b366b",
"c1 c #174073",
"d1 c #fefefe",
"e1 c #ccd6e1",
"f1 c #274d7c",
"g1 c #143b6e",
"h1 c #073066",
"i1 c #e4e9ee",
"j1 c #4d6a91",
"k1 c #153c6e",
"l1 c #547095",
"m1 c #fdfdfe",
"n1 c #f0f3f6",
"o1 c #14386b",
"p1 c #12376a",
"q1 c #46628a",
"r1 c #264776",
"s1 c #14396b",
"t1 c #0c3266",
"u1 c #9eadc1",
"v1 c #fcfdfd",
"w1 c #91a4b9",
"x1 c #143669",
"y1 c #062a60",
"z1 c #bbc5d4",
"02 c #fafbfb",
"12 c #9cabc1",
"22 c #0a2d62",
"32 c #00245c",
"42 c #435d86",
"52 c #eaeef2",
"62 c #fbfcfd",
"72 c #f6f8f9",
"82 c #d4dce3",
"92 c #143467",
":2 c #143466",
";2 c #1e3d6d",
"A2 c #f8fafb",
"B2 c #f9fafc",
"C2 c #f9fafb",
"D2 c #e7ebf0",
"E2 c #113262",
"F2 c #143264",
"G2 c #143265",
"H2 c #0a2a5e",
"I2 c #183667",
"J2 c #66799b",
"K2 c #a2aec2",
"L2 c #b2bccc",
"M2 c #a7b3c5",
"N2 c #09295e",
"O2 c #06265c",
"P2 c #697c9c",
"Q2 c #f6f8fa",
"R2 c #f7f9fa",
"S2 c #e1e6ec",
"T2 c #123062",
"U2 c #0a265b",
"V2 c #647596",
"W2 c #dbdfe7",
"X2 c #122e61",
"Y2 c #0c285c",
"Z2 c #08255a",
"a2 c #142f61",
"b2 c #142f62",
"c2 c #0b275c",
"d2 c #27406e",
"e2 c #c9d0dc",
"f2 c #f5f7f8",
"g2 c #f5f6f8",
"h2 c #d8dee5",
"i2 c #122d5e",
"j2 c #132d5e",
"k2 c #0b2559",
"l2 c #ebeef2",
"m2 c #052054",
"n2 c #132c5e",
"o2 c #112b5d",
"p2 c #072256",
"q2 c #8492ab",
"r2 c #f3f4f7",
"s2 c #f2f3f6",
"t2 c #ced6df",
"u2 c #122a5b",
"v2 c #1b3160",
"w2 c #46587f",
"x2 c #13295b",
"y2 c #132a5b",
"z2 c #071f53",
"03 c #3a4e76",
"13 c #d8dde5",
"23 c #eef0f4",
"33 c #eff1f4",
"43 c #eef0f3",
"53 c #c8d0db",
"63 c #112858",
"73 c #071d50",
"83 c #e9ecf0",
"93 c #afb8c8",
":3 c #233663",
";3 c #051b4e",
"A3 c #03194d",
"B3 c #061c50",
"C3 c #3a4c74",
"D3 c #d0d5de",
"E3 c #eaedf1",
"F3 c #bec5d3",
"G3 c #102556",
"H3 c #122758",
"I3 c #0f2455",
"J3 c #0b2153",
"K3 c #9aa5b9",
"L3 c #ebeef1",
"M3 c #c1cad5",
"N3 c #102655",
"O3 c #0b1f50",
"P3 c #d9dee5",
"Q3 c #0a1e50",
"R3 c #0c2052",
"S3 c #182c5a",
"T3 c #071b4e",
"U3 c #0b2051",
"V3 c #0e2253",
"W3 c #364770",
"X3 c #e7eaef",
"Y3 c #e6eaee",
"Z3 c #02174b",
"a3 c #112555",
"b3 c #03184b",
"c3 c #4f5e82",
"d3 c #b2bcca",
"e3 c #0e2553",
"f3 c #3b4b72",
"g3 c #e1e5eb",
"h3 c #e2e5ea",
"i3 c #e0e4e9",
"j3 c #001347",
"k3 c #0d2050",
"l3 c #556385",
"m3 c #e1e4ea",
"n3 c #e1e5ea",
"o3 c #1c2d5b",
"p3 c #112453",
"q3 c #162957",
"r3 c #dfe4e9",
"s3 c #e2e6eb",
"t3 c #e0e5ea",
"u3 c #dfe3e9",
"v3 c #293a65",
"w3 c #102352",
"x3 c #102353",
"y3 c #0a1e4e",
"z3 c #0c2451",
"04 c #0b1d4d",
"14 c #ccd2db",
"24 c #dbe0e5",
"34 c #162855",
"44 c #0d1f4f",
"54 c #9ba4b7",
"64 c #dde1e8",
"74 c #dcdfe6",
"84 c #3b4970",
"94 c #102251",
":4 c #717d98",
";4 c #dbdfe5",
"A4 c #dde1e7",
"B4 c #dce0e7",
"C4 c #9ea8b9",
"D4 c #0e204f",
"E4 c #0f2150",
"F4 c #d4d9e0",
"G4 c #d6dbe2",
"H4 c #c4cad4",
"I4 c #0b1d4b",
"J4 c #35446a",
"K4 c #d6dbe1",
"L4 c #d7dbe2",
"M4 c #d7dce2",
"N4 c #d1d7df",
"O4 c #011344",
"P4 c #001243",
"Q4 c #d3d9df",
"R4 c #d7dce3",
"S4 c #d5dae1",
"T4 c #d4d8e0",
"U4 c #011444",
"V4 c #0e204e",
"W4 c #22325b",
"X4 c #556281",
"Y4 c #c3cad4",
"Z4 c #d1d5de",
"a4 c #d1d6de",
"b4 c #d0d4dd",
"c4 c #7c869e",
"d4 c #0c1d4b",
"e4 c #acb3c2",
"f4 c #cfd4dc",
"g4 c #d1d6dd",
"h4 c #d0d5dd",
"i4 c #cdd2db",
"j4 c #10214d",
"k4 c #0d1e4c",
"l4 c #465375",
"m4 c #c9ced7",
"n4 c #192a53",
"o4 c #001140",
"p4 c #c8ced7",
"q4 c #b9bfcb",
"r4 c #091a48",
"s4 c #717b95",
"t4 c #c6ccd6",
"u4 c #c9cfd8",
"v4 c #c7cdd6",
"w4 c #79839b",
"x4 c #0c1d4a",
"y4 c #0a1f4a",
"z4 c #0a1c48",
"05 c #4c5979",
"15 c #c1c7d1",
"25 c #13234d",
"35 c #000f3e",
"45 c #c3c9d3",
"55 c #b5bbc8",
"65 c #071945",
"75 c #69748e",
"85 c #c0c6d0",
"95 c #c2c8d2",
":5 c #bec4cf",
";5 c #011341",
"A5 c #0b1c48",
"B5 c #2c3b60",
"C5 c #374669",
"D5 c #021440",
"E5 c #929bac",
"F5 c #091b46",
"G5 c #9099ac",
"H5 c #000f3c",
"I5 c #0a1c46",
"J5 c #939bad",
"K5 c #6d7790",
"L5 c #11224a",
"M5 c #01133e",
"N5 c #00123d",
"O5 c #091b45",
"P5 c #081b45",
"Q5 c #071a43",
"R5 c #01123d",
"S5 c #000b37",
"T5 c #00103b",
"U5 c #858ea2",
"V5 c #071943",
"W5 c #233358",
"X5 c #8c95a7",
"Y5 c #081a43",
"Z5 c #5a6781",
"a5 c #02143d",
"b5 c #919aab",
"c5 c #727d93",
"d5 c #03163e",
"e5 c #000a34",
"f5 c #0d1e44",
"g5 c #071a42",
"h5 c #000d36",
"i5 c #80899d",
"j5 c #000e37",
"k5 c #04173e",
"l5 c #061840",
"m5 c #5b6681",
"n5 c #6f7a90",
"o5 c #485672",
"p5 c #000d37",
"q5 c #071a41",
"r5 c #000933",
"s5 c #04163e",
"t5 c #071940",
"u5 c #253455",
"v5 c #364462",
"w5 c #000c35",
"x5 c #02153c",
"y5 c #04173d",
"z5 c #01143b",
"06 c #000b33",
"16 c #4f5c77",
"26 c #000c34",
"36 c #06193f",
"46 c #515e77",
"56 c #132145",
"66 c #06193e",
"76 c #46526e",
"86 c #0d1d3f",
"96 c #06193d",
":6 c #06193c",
";6 c #010f33",
"A6 c #55617a",
"B6 c #5a677d",
"C6 c #000b30",
"D6 c #06193b",
"E6 c #041638",
"F6 c #031235",
"G6 c #4b576f",
"H6 c #4d5a72",
"I6 c #010b2f",
"J6 c #06183a",
"K6 c #061838",
"L6 c #041637",
"M6 c #001233",
"N6 c #011132",
"O6 c #011334",
"P6 c #051738",
"Q6 c #061839",
"R6 c #061837",
"S6 c #071836",
"T6 c #081835",
"U6 c #0a1934",
"V6 c #0a1933",
"W6 c #0b1a32",
"X6 c #0d1a31",
"Y6 c #0f1b31",
"Z6 c #111c30",
"a6 c #131d2f",
"                                                                                                                                ",
"                                                                                                                                ",
"                                                                                                                                ",
"                                                                                                                                ",
"                                                    a6a6a6a6a6a6a6a6a6a6a6a6a6                                                  ",
"                                            Z6Z6Z6Z6Z6Z6Z6Z6Z6Z6Z6Z6Z6Z6Z6Z6Z6Z6Z6Z6                                            ",
"                                        Y6Y6Y6Y6Y6Y6Y6Y6Y6Y6Y6Y6Y6Y6Y6Y6Y6Y6Y6Y6Y6Y6Y6Y6                                        ",
"                                    X6X6X6X6X6X6X6X6X6X6X6X6X6X6X6X6X6X6X6X6X6X6X6X6X6X6X6X6                                    ",
"                                W6W6W6W6W6W6W6W6W6W6W6W6W6W6W6W6W6W6W6W6W6W6W6W6W6W6W6W6W6W6W6W6                                ",
"                              V6U6U6U6U6U6U6U6U6U6U6U6U6U6U6U6U6U6U6U6U6U6U6U6U6U6U6U6U6U6U6U6U6V6                              ",
"                            T6T6T6T6T6T6T6T6T6T6T6T6T6T6T6T6T6T6T6T6T6T6T6T6T6T6T6T6T6T6T6T6T6T6T6T6T6                          ",
"                          S6S6S6S6S6S6S6S6S6S6S6S6S6S6S6S6S6S6S6S6S6S6S6S6S6S6S6S6S6S6S6S6S6S6S6S6S6S6S6                        ",
"                        R6R6R6R6R6R6R6R6R6R6R6R6R6R6R6R6R6R6R6R6R6R6R6R6R6R6R6R6R6R6R6R6R6R6R6R6R6R6R6R6R6                      ",
"                      Q6Q6Q6Q6Q6Q6Q6Q6Q6Q6Q6Q6Q6Q6Q6Q6Q6Q6Q6Q6Q6Q6Q6Q6Q6Q6Q6Q6P6O6N6M6L6Q6Q6Q6Q6Q6Q6Q6Q6Q6K6                    ",
"                    J6J6J6J6J6J6J6J6J6J6J6J6J6J6J6J6J6J6J6J6J6J6J6J6J6J6J6I6H6          G6F6E6J6J6J6J6J6J6J6J6                  ",
"                  D6D6D6D6D6D6D6D6D6D6D6D6D6D6D6D6D6D6D6D6D6D6D6D6D6D6C6B6                  A6;6:6D6D6D6D6D6D6                  ",
"                :6:6:6:6:6:6:6:6:6:6:6:6:6:6:6:6:6:6:6:6:6:6:6:6:69686                          76:6:6:6:6:6:6:6                ",
"                6666666666666666666666666666666666666666666666666656                              4666666666666666              ",
"              3636363636363636363636363636363636363636363636363626          1606z5y5x5w5v5          u5363636363636              ",
"              t5t5t5t5t5t5t5t5t5t5t5t5t5t5t5t5t5t5t5t5t5t5t5t5s5          r5q5p5o5n5m5l5k5j5i5        h5t5t5t5t5t5t5            ",
"            g5g5g5g5g5g5g5g5g5g5g5g5g5g5g5g5g5g5g5g5g5g5g5g5g5f5        e5d5c5          b5p5a5        Z5g5g5g5g5g5g5            ",
"            Y5Y5Y5Y5Y5Y5Y5Y5Y5Y5Y5Y5Y5Y5Y5Y5Y5Y5Y5Y5Y5Y5Y5Y5Y5X5      W5V5U5                T5S5        R5Y5Y5Y5Y5Y5Q5          ",
"          P5O5O5O5O5O5O5O5O5O5O5O5O5O5O5O5O5O5O5O5O5O5O5O5O5N5        M5L5                  K5O5J5      R5O5O5O5O5O5O5          ",
"          I5I5I5I5I5I5I5I5I5I5I5I5I5I5I5I5I5I5I5I5I5I5I5I5I5H5      G5F5E5                    D5C5      B5I5I5I5I5I5I5          ",
"          A5A5A5A5A5A5A5A5A5A5A5A5A5A5A5A5A5A5A5A5A5A5A5A5A5;5:59585756555854545454545454595  352515459505A5A5A5A5A5A5z4        ",
"        y4x4x4x4x4x4x4x4x4x4x4x4x4x4x4x4x4x4x4x4x4x4x4x4x4x4w4v4u4t4s4r4q4p4u4u4u4u4u4u4u4p445o4n4v4u4m4l4x4x4x4x4x4x4x4        ",
"        k4k4k4k4k4k4k4k4k4k4k4k4k4k4k4k4k4k4k4k4k4k4k4k4k4j4i4h4g4f4e4d4c4b4a4g4a4Z4g4a4g4g4Y4r4X4h4g4f4W4k4k4k4k4k4k4k4        ",
"        V4V4V4V4V4V4V4V4V4V4V4V4V4V4V4V4V4V4V4V4V4V4V4V4U4T4S4R4R4S4Q4P4O4N4M4M4M4L4M4M4R4K4J4I4H4G4M4F4U4V4V4V4V4V4V4V4        ",
"        E4E4E4E4E4E4E4E4E4E4E4E4E4E4E4E4E4E4E4E4E4E4E4D4C4B4B4A4A4A4;4:4948474A4A4A4A464A454443424B4A41404E4E4E4E4E4E4E4z3      ",
"        y3x3w3w3w3w3w3w3w3w3w3w3w3w3w3w3w3w3w3w3w3w3x3v3u3t3s3s3s3s3t3r3q3p3o3S4n3t3n3m3l3k3j3i3h3s3g3f3x3w3w3w3w3w3w3w3e3      ",
"        d3c3b3a3a3a3a3a3a3a3a3a3a3a3a3a3a3a3a3a3a3a3Z3Y3Y3X3X3X3X3X3X3Y3Y3W3V3U3T3S3R3T3a3Q3Y3X3X3X3P3O3a3a3a3a3a3a3a3a3N3      ",
"        M3L3L3K3J3I3H3H3H3H3H3H3H3H3H3H3H3H3H3H3H3G3F3E3L3L3L3L3L3L3L3L3E3L3D3C3B3A3;3:393E3L3L3L38373H3H3H3H3H3H3H3H3H363      ",
"        53434333231303z2y2x2x2x2x2x2x2x2x2x2x2x2y2w24343333333333333333333434333333333333343333323v2y2x2x2x2x2x2x2x2x2x2u2      ",
"        t2s2s2s2s2s2s2r2q2p2o2n2n2n2n2n2n2n2n2n2m2s2s2s2s2s2s2s2s2s2s2s2s2s2s2s2s2s2s2s2s2s2s2l2k2j2n2n2n2n2n2n2n2n2n2n2i2      ",
"        h2g2g2g2g2g2g2g2g2f2e2d2c2b2b2b2a2Z2Y2X2W2g2g2g2g2g2g2g2g2g2g2g2g2g2g2g2g2g2g2g2f2f2V2U2b2b2b2b2b2b2b2b2b2b2b2b2T2      ",
"        S2R2R2R2R2R2R2R2R2Q2R2R2g2P2O2N2M2R2R2R2Q2Q2R2R2R2R2R2R2R2R2R2R2R2R2R2R2R2L2K2J2I2H2G2F2F2F2F2F2F2F2F2F2F2F2F2F2E2      ",
"        D2C2C2C2C2C2C2C2C2C2C2C2C2C2B2B2C2A2A2r2C2B2C2C2C2C2C2C2C2C2C2C2C2C2C2C2;2:2:292:2:2:2:2:2:2:2:2:2:2:2:2:2:2:2:2        ",
"        82726262626262626262626262626262625242322222120262626262626262626262z1y1x1x1x1x1x1x1x1x1x1x1x1x1x1x1x1x1x1x1x1x1        ",
"        w133v1v1v1v1v1v1v1v1v1v1v1v1v1v1v1v1v1v1u1t1s1r1v1v1v1v1v1v1v1v1v1q1p1o1o1o1o1o1o1o1o1o1o1o1o1o1o1o1o1o1o1o1o1o1        ",
"          n1m1m1m1m1m1m1m1m1m1m1m1m1m1m1m1m1m1m1m1m1l1k1j1m1m1m1m1m1m1i1h1g1g1g1g1g1g1g1g1g1g1g1g1g1g1g1g1g1g1g1g1g1g1g1        ",
"          f1e1d1d1d1d1d1d1d1d1d1d1d1d1d1d1d1d1d1d1d1d1c1b1a1d1d1d1d1Z1Y1X1X1X1X1X1X1X1X1X1X1X1X1X1X1X1X1X1X1X1X1X1X1X1W1        ",
"          V1U1T1S1d1d1d1d1d1d1d1d1d1d1d1d1d1d1d1d1d1d1R1Q1P1d1d1d1O1V1V1V1V1V1V1V1V1V1V1V1V1V1V1V1V1V1V1V1V1V1V1V1V1V1          ",
"            N1N1N1M1L1K1J1J1J1J1J1J1J1J1J1J1J1J1J1J1J1I1H1G1J1K1F1N1N1N1N1N1N1N1N1N1N1N1N1N1N1N1N1N1N1N1N1N1N1N1N1N1N1          ",
"            E1E1E1E1E1D1C1B1J1J1J1J1J1J1J1J1J1J1J1J1J1A1;1:1J19181E1E1E1E1E1E1E1E1E1E1E1E1E1E1E1E1E1E1E1E1E1E1E1E1E1            ",
"            71616161616161615141J1J1J1J1J1J1J1J1J1J1J1316121J1116161616161616161616161616161616161616161616161616161            ",
"              0101010101010101z0J1J1y0J1J1J1J1J1J1J1J1x0w0J1J1v001010101010101010101010101010101010101010101010101              ",
"                u0u0u0u0u0u0u0t0s0J1r0q0p0d1J1J1J1o0n0m0l0J1Q2k0u0u0u0u0u0u0u0u0u0u0u0u0u0u0u0u0u0u0u0u0u0u0u0u0u0              ",
"                j0j0j0j0j0j0j0j0i0J1J1h0g0f0e0d0c0b0a0Z0J1J1Y0j0j0j0j0j0j0j0j0j0j0j0j0j0j0j0j0j0j0j0j0j0j0j0j0j0                ",
"                  X0X0X0X0X0X0X0X0W0J1J1J1V0U0T0S0R0J1J1J1Q0X0X0X0X0X0X0X0X0X0X0X0X0X0X0X0X0X0X0X0X0X0X0X0X0X0X0                ",
"                    P0P0P0P0P0P0P0O0N0M0J1J1J1J1J1J1J1J1L0P0P0P0P0P0P0P0P0P0P0P0P0P0P0P0P0P0P0P0P0P0P0P0P0P0P0                  ",
"                    K0K0K0K0K0K0K0K0K0J0I0H0J1J1J1G0F0E0K0K0K0K0K0K0K0K0K0K0K0K0K0K0K0K0K0K0K0K0K0K0K0K0K0K0                    ",
"                      D0D0D0D0D0D0D0D0D0D0C0B0A0;0:0D0D0D0D0D0D0D0D0D0D0D0D0D0D0D0D0D0D0D0D0D0D0D0D0D0D0D0                      ",
"                        90909090909090909090909090909090909090909090909090909090909090909090909090909090                        ",
"                          8080808080808080808080808080808080808080808080808080808080808080808080808080                          ",
"                            706060606060606060606060606060606060606060606060606060606060606060606060                            ",
"                                505050505050505050505050505050505050505050505050505050505050505050                              ",
"                                  404040404040404040404040404040404040404040404040404040404040                                  ",
"                                      3030303030303030303030303030303030303030303030303030                                      ",
"                                          20202020202020202020202020202020202020202020                                          ",
"                                                10101010101010101010101010101010                                                ",
"                                                          000000000000                                                          ",
"                                                                                                                                ",
"                                                                                                                                ",
"                                                                                                                                "};
