/* XPM */
static char *image[] = {
"48 48 754 2",
"   c None",
"00 c #183460",
"10 c #1f4987",
"20 c #1f4984",
"30 c #1f4680",
"40 c #1c4279",
"50 c #18345f",
"60 c #1c4075",
"70 c #4770af",
"80 c #406ba8",
"90 c #1c4074",
":0 c #1a3a68",
";0 c #37609f",
"A0 c #2c5692",
"B0 c #1d4177",
"C0 c #244d8a",
"D0 c #999999",
"E0 c #1e467f",
"F0 c #355f9c",
"G0 c #1e457e",
"H0 c #091018",
"I0 c #9b9b9b",
"J0 c #cecece",
"K0 c #b0b0b0",
"L0 c #1d4076",
"M0 c #3c64a2",
"N0 c #2b5493",
"O0 c #1d4075",
"P0 c #969696",
"Q0 c #cfcfcf",
"R0 c #949494",
"S0 c #193966",
"T0 c #204a86",
"U0 c #193864",
"V0 c #989898",
"W0 c #aaaaaa",
"X0 c #b8b9ba",
"Y0 c #204986",
"Z0 c #224a86",
"a0 c #c3c3c4",
"b0 c #9a9a9a",
"c0 c #b9b9b9",
"d0 c #b6b6b6",
"e0 c #7b899f",
"f0 c #3d67a7",
"g0 c #4171a9",
"h0 c #36649e",
"i0 c #2b5893",
"j0 c #234d89",
"k0 c #26508d",
"l0 c #31609a",
"m0 c #3768a2",
"n0 c #2c5693",
"o0 c #919baa",
"p0 c #b1b2b3",
"q0 c #cdcdcd",
"r0 c #aeaeae",
"s0 c #c8c8c8",
"t0 c #b0b2b4",
"u0 c #1a3966",
"v0 c #3f6fa6",
"w0 c #2b5892",
"x0 c #4770b0",
"y0 c #1f4b87",
"z0 c #27548f",
"01 c #33649d",
"11 c #1f4a87",
"21 c #1e3e6c",
"31 c #b2b6bb",
"41 c #d1d2d3",
"51 c #7a8ba4",
"61 c #4474ac",
"71 c #305e97",
"81 c #3761a0",
"91 c #6992d3",
":1 c #769edf",
";1 c #6a93d4",
"A1 c #5e8ac9",
"B1 c #648fcf",
"C1 c #2c5793",
"D1 c #204987",
"E1 c #295792",
"F1 c #33659e",
"G1 c #95a1b3",
"H1 c #c5c7ca",
"I1 c #335280",
"J1 c #536f98",
"K1 c #e0e0e0",
"L1 c #7791bc",
"M1 c #2a5490",
"N1 c #244d8b",
"O1 c #5681bf",
"P1 c #799fe2",
"Q1 c #4777b3",
"R1 c #3566a1",
"S1 c #42689c",
"T1 c #5e85b2",
"U1 c #5a82b1",
"V1 c #7fa5e2",
"W1 c #778eaf",
"X1 c #d7d8d8",
"Y1 c #5d7eae",
"Z1 c #36609e",
"a1 c #9aacca",
"b1 c #d5d5d7",
"c1 c #84a3cd",
"d1 c #5b86b5",
"e1 c #26518d",
"f1 c #35609e",
"g1 c #6e96d7",
"h1 c #759ddf",
"i1 c #4e7bb9",
"j1 c #5784c3",
"k1 c #79a1e1",
"l1 c #8facda",
"m1 c #88a0c2",
"n1 c #a5b2c5",
"o1 c #9eb0c5",
"p1 c #a3b7d9",
"q1 c #7d97bc",
"r1 c #99a3b2",
"s1 c #c5c8cc",
"t1 c #396095",
"u1 c #3d65a4",
"v1 c #6891d1",
"w1 c #3e6ea8",
"x1 c #386aa2",
"y1 c #2f629c",
"z1 c #5d85b8",
"02 c #afc5e7",
"12 c #d1d4d8",
"22 c #8191a8",
"32 c #749bdd",
"42 c #2c5594",
"52 c #739adc",
"62 c #265089",
"72 c #c0c4ca",
"82 c #a8afba",
"92 c #749ada",
":2 c #648ecd",
";2 c #396ca3",
"A2 c #3b6da5",
"B2 c #3567a0",
"C2 c #33659f",
"D2 c #6188b3",
"E2 c #adbbcb",
"F2 c #c3c7cd",
"G2 c #30639d",
"H2 c #32649f",
"I2 c #6f98d9",
"J2 c #648dcd",
"K2 c #5e88c7",
"L2 c #739cdd",
"M2 c #3f71a9",
"N2 c #224d89",
"O2 c #7495ca",
"P2 c #c9cbcd",
"Q2 c #acb6c8",
"R2 c #4072a9",
"S2 c #3e6fa7",
"T2 c #5c84b1",
"U2 c #a8b7c7",
"V2 c #9aacc8",
"W2 c #224c88",
"X2 c #4070ac",
"Y2 c #4874b2",
"Z2 c #3e68a8",
"a2 c #4f7db8",
"b2 c #26528f",
"c2 c #38619f",
"d2 c #5576a9",
"e2 c #8ea0b5",
"f2 c #3e70a7",
"g2 c #3c6ea6",
"h2 c #3a6ba4",
"i2 c #4372a7",
"j2 c #7496ba",
"k2 c #d5d6d7",
"l2 c #c0c5cc",
"m2 c #476ca2",
"n2 c #254f8c",
"o2 c #2e619b",
"p2 c #5883c2",
"q2 c #759dde",
"r2 c #2d5794",
"s2 c #214d8a",
"t2 c #628ecb",
"u2 c #4475ac",
"v2 c #2a5793",
"w2 c #224d8a",
"x2 c #739bdc",
"y2 c #7998c3",
"z2 c #7f97b2",
"03 c #4475ab",
"13 c #4273aa",
"23 c #3f71a8",
"33 c #97a7ba",
"43 c #d2d3d4",
"53 c #abbad0",
"63 c #7296ce",
"73 c #275491",
"83 c #31649d",
"93 c #6d96d7",
":3 c #608aca",
";3 c #4576ad",
"A3 c #315c97",
"B3 c #79a0e2",
"C3 c #4978b1",
"D3 c #708eae",
"E3 c #7190b1",
"F3 c #497ab0",
"G3 c #4778ae",
"H3 c #4576ac",
"I3 c #4071a9",
"J3 c #7c94af",
"K3 c #577ba3",
"L3 c #2c5894",
"M3 c #3d6fa6",
"N3 c #3769a2",
"O3 c #33669f",
"P3 c #30639c",
"Q3 c #4c7ab8",
"R3 c #789fe1",
"S3 c #5881c1",
"T3 c #4d7db3",
"U3 c #2d5a95",
"V3 c #5880c0",
"W3 c #7ea2dc",
"X3 c #4676ac",
"Y3 c #839ab4",
"Z3 c #6a8db3",
"a3 c #5181b5",
"b3 c #4d7db2",
"c3 c #4b7bb1",
"d3 c #4879af",
"e3 c #4677ad",
"f3 c #4374ab",
"g3 c #6d8bac",
"h3 c #6685a7",
"i3 c #406ba9",
"j3 c #295692",
"k3 c #4071a8",
"l3 c #3d6ea6",
"m3 c #396ba4",
"n3 c #3667a1",
"o3 c #78a0e1",
"p3 c #416ca9",
"q3 c #214a89",
"r3 c #4e7eb4",
"s3 c #5180b5",
"t3 c #295391",
"u3 c #6c93d4",
"v3 c #7ba0d3",
"w3 c #618bb9",
"x3 c #4f7db2",
"y3 c #4c7cb2",
"z3 c #95a6b9",
"04 c #d3d4d5",
"14 c #658bb6",
"24 c #5585b9",
"34 c #5584b8",
"44 c #5282b7",
"54 c #5080b5",
"64 c #4e7eb3",
"74 c #4c7cb1",
"84 c #4979af",
"94 c #6487ae",
":4 c #7b93ae",
";4 c #27528e",
"A4 c #4274aa",
"B4 c #3f70a8",
"C4 c #3c6da5",
"D4 c #386aa3",
"E4 c #3467a0",
"F4 c #31639d",
"G4 c #6d95d6",
"H4 c #537dbc",
"I4 c #5281b6",
"J4 c #5484b8",
"K4 c #244e8a",
"L4 c #789edb",
"M4 c #789ecf",
"N4 c #5886b8",
"O4 c #5381b5",
"P4 c #a5b1be",
"Q4 c #5988bc",
"R4 c #5887bb",
"S4 c #5685b9",
"T4 c #5483b8",
"U4 c #5181b6",
"V4 c #4f7fb4",
"W4 c #5f86b0",
"X4 c #d4d5d6",
"Y4 c #91a3b6",
"Z4 c #234e8a",
"a4 c #4878ad",
"b4 c #4373a9",
"c4 c #3a6ca4",
"d4 c #3668a1",
"e4 c #32659e",
"f4 c #658fcf",
"g4 c #5c86c5",
"h4 c #608ebe",
"i4 c #759acd",
"j4 c #6892c0",
"k4 c #b2bac2",
"l4 c #c0c5c9",
"m4 c #628ebd",
"n4 c #5d8cbf",
"o4 c #5b8abe",
"p4 c #5a89bc",
"q4 c #5888bb",
"r4 c #5b89bb",
"s4 c #698fb9",
"t4 c #cbcdcf",
"u4 c #a8b2bd",
"v4 c #618ab8",
"w4 c #204a88",
"x4 c #5882b2",
"y4 c #4876aa",
"z4 c #34669f",
"05 c #5f8bc9",
"15 c #638dcd",
"25 c #26508b",
"35 c #799fdd",
"45 c #799dcf",
"55 c #6a92be",
"65 c #7a9fc7",
"75 c #bfc4c8",
"85 c #b8bfc6",
"95 c #7199c6",
":5 c #6f9ac7",
";5 c #739cc8",
"A5 c #779bc3",
"B5 c #c2c6c9",
"C5 c #b4bbc2",
"D5 c #688fbb",
"E5 c #254f8b",
"F5 c #638cb9",
"G5 c #6089b7",
"H5 c #5c86b4",
"I5 c #5983b2",
"J5 c #4573a7",
"K5 c #648ece",
"L5 c #5e87c8",
"M5 c #214b89",
"N5 c #305a94",
"O5 c #6e96d6",
"P5 c #7ca1d4",
"Q5 c #82a4c9",
"R5 c #caccce",
"S5 c #7da3cc",
"T5 c #799ec7",
"U5 c #b8bec4",
"V5 c #bdc1c6",
"W5 c #6f95bd",
"X5 c #2d5691",
"Y5 c #5d87b5",
"Z5 c #5a84b3",
"a5 c #5680b0",
"b5 c #557fbe",
"c5 c #214a88",
"d5 c #5e87c7",
"e5 c #3d679e",
"f5 c #5e86c6",
"g5 c #82a6dc",
"h5 c #89a8ca",
"i5 c #acb7c3",
"j5 c #7da2ca",
"k5 c #b4bcc4",
"l5 c #779ac0",
"m5 c #4771b0",
"n5 c #37629a",
"o5 c #5e87b6",
"p5 c #5a83b3",
"q5 c #87aae3",
"r5 c #4871b0",
"s5 c #1f4a88",
"t5 c #5b82b4",
"u5 c #80a7d1",
"v5 c #8faccb",
"w5 c #d5d5d6",
"x5 c #babdc0",
"y5 c #cdced0",
"z5 c #7c9dc2",
"06 c #5078ab",
"16 c #6990c3",
"26 c #2a5491",
"36 c #26518f",
"46 c #779dc9",
"56 c #27518f",
"66 c #7da2e2",
"76 c #7ca1d3",
"86 c #7098c3",
"96 c #7aa2cc",
":6 c #81a8d1",
";6 c #85abd3",
"A6 c #88aed6",
"B6 c #91acc9",
"C6 c #d1d1d2",
"D6 c #81a0c3",
"E6 c #749bc6",
"F6 c #668ebd",
"G6 c #658fbc",
"H6 c #5f88b6",
"I6 c #5b84b3",
"J6 c #7fa3d8",
"K6 c #7a9fd8",
"L6 c #1f4b88",
"M6 c #3d669d",
"N6 c #4f77b6",
"O6 c #89abe5",
"P6 c #759bc9",
"Q6 c #7aa1cc",
"R6 c #7ea4ce",
"S6 c #84a9d3",
"T6 c #abb6c3",
"U6 c #dadada",
"V6 c #9cadbf",
"W6 c #739ac6",
"X6 c #386299",
"Y6 c #6991be",
"Z6 c #5e88b6",
"a6 c #6f94c8",
"b6 c #8faee7",
"c6 c #426aa6",
"d6 c #7097c3",
"e6 c #224c89",
"f6 c #7299d7",
"g6 c #89aae0",
"h6 c #739bc7",
"i6 c #7fa5cf",
"j6 c #80a7d0",
"k6 c #a7b5c3",
"l6 c #e8e8e8",
"m6 c #d6d6d7",
"n6 c #97aabf",
"o6 c #dddddd",
"p6 c #96a9bf",
"q6 c #628bb9",
"r6 c #6b94c0",
"s6 c #6890be",
"t6 c #658ebb",
"u6 c #618ab9",
"v6 c #648bbc",
"w6 c #6a90c8",
"x6 c #4871a5",
"y6 c #305b98",
"z6 c #84a8e4",
"07 c #80a4d5",
"17 c #a1b1c2",
"27 c #d8d9d9",
"37 c #8ba7c4",
"47 c #7aa0cb",
"57 c #8fa6c0",
"67 c #e2e2e2",
"77 c #90a5bd",
"87 c #436ca1",
"97 c #648dba",
":7 c #608ab8",
";7 c #82a5da",
"A7 c #81a4dd",
"B7 c #27508d",
"C7 c #365f97",
"D7 c #4d76b4",
"E7 c #88aae4",
"F7 c #80a4d6",
"G7 c #9cadc0",
"H7 c #dcdcdc",
"I7 c #8da7c3",
"J7 c #91a6be",
"K7 c #99adc4",
"L7 c #88a8ca",
"M7 c #81a3c9",
"N7 c #86a8d9",
"O7 c #345c96",
"P7 c #6c94c1",
"Q7 c #6992be",
"R7 c #668fbc",
"S7 c #668fbe",
"T7 c #7fa3d7",
"U7 c #88abe5",
"V7 c #39619f",
"W7 c #214c8a",
"X7 c #4e76b4",
"Y7 c #89abe0",
"Z7 c #799ecc",
"a7 c #779ec8",
"b7 c #4c70a2",
"c7 c #7897c6",
"d7 c #a0bce9",
"e7 c #92b1e2",
"f7 c #98abc3",
"g7 c #e3e3e3",
"h7 c #8ea6c0",
"i7 c #759dc8",
"j7 c #749cc7",
"k7 c #6f98c3",
"l7 c #94a8bd",
"m7 c #c4ccd5",
"n7 c #becbdf",
"o7 c #a1bbe6",
"p7 c #4e73ab",
"q7 c #2b5590",
"r7 c #6892be",
"s7 c #6a93bf",
"t7 c #6790be",
"u7 c #7198c8",
"v7 c #7da2de",
"w7 c #3e66a4",
"x7 c #214b87",
"y7 c #315c98",
"z7 c #779dd9",
"08 c #8daee6",
"18 c #769ec8",
"28 c #9ab6d6",
"38 c #adc3da",
"48 c #adb8c8",
"58 c #a5b3c5",
"68 c #b2c0d7",
"78 c #e4e4e4",
"88 c #91a7bf",
"98 c #729ac6",
":8 c #7199c4",
";8 c #80a3c9",
"A8 c #c5ced8",
"B8 c #d9d9d9",
"C8 c #bdc3cc",
"D8 c #5d7daa",
"E8 c #6d95c2",
"F8 c #6a93c0",
"G8 c #6e96c3",
"H8 c #7ea3d7",
"I8 c #87aae5",
"J8 c #638cca",
"K8 c #27518e",
"L8 c #214a87",
"M8 c #5179b8",
"N8 c #9ab7e8",
"O8 c #bbceea",
"P8 c #d0d2d5",
"Q8 c #d8d8d8",
"R8 c #e6e6e6",
"S8 c #9dafce",
"T8 c #8aace5",
"U8 c #87a9dd",
"V8 c #80a5d7",
"W8 c #7ea2d3",
"X8 c #7ba0d1",
"Y8 c #a2bce6",
"Z8 c #c4cdde",
"a8 c #a8bad2",
"b8 c #7da2d3",
"c8 c #7fa3d6",
"d8 c #84a7df",
"e8 c #84a7e4",
"f8 c #759ddd",
"g8 c #3f69a8",
"h8 c #214986",
"i8 c #26518e",
"j8 c #6b8bbb",
"k8 c #b9c4d7",
"l8 c #afb7c2",
"m8 c #295390",
"n8 c #416aa8",
"o8 c #6289c8",
"p8 c #7399d7",
"q8 c #7a9fde",
"r8 c #7ea3e2",
"s8 c #7c9bcd",
"t8 c #acb7c9",
"u8 c #b1bed5",
"v8 c #789edc",
"w8 c #6c93d3",
"x8 c #5981c0",
"y8 c #3a63a1",
"z8 c #214c89",
"09 c #406193",
"19 c #7797cb",
"29 c #a6b4c7",
"39 c #8a9cb6",
"49 c #3b659d",
"59 c #476fa5",
"69 c #3e679f",
"79 c #335c96",
"89 c #28518c",
"99 c #204b88",
":9 c #27508c",
";9 c #315994",
"A9 c #4970a3",
"B9 c #87a1c3",
"C9 c #ced2d6",
"D9 c #d7d7d7",
"E9 c #d6d7d8",
"F9 c #3f6191",
"G9 c #325a96",
"H9 c #3c65a2",
"I9 c #466593",
"J9 c #dfdfdf",
"K9 c #6283b8",
"L9 c #b1c2e0",
"M9 c #d5d5d5",
"N9 c #c8ccd1",
"O9 c #8aacd1",
"P9 c #84abd3",
"Q9 c #83a9d2",
"R9 c #7ca3cd",
"S9 c #7ea2c9",
"T9 c #8faccc",
"U9 c #aabacc",
"V9 c #a3b4c8",
"W9 c #b0b9c3",
"X9 c #eaeaea",
"Y9 c #cfd1d2",
"Z9 c #93aedc",
"a9 c #607ea7",
"b9 c #c1c1c1",
"c9 c #dedede",
"d9 c #d4d5d5",
"e9 c #486692",
"f9 c #d7d8d9",
"g9 c #bfc5ca",
"h9 c #a8b9cd",
"i9 c #86a9ce",
"j9 c #7ea5cf",
"k9 c #81a7d0",
"l9 c #80a6d0",
"m9 c #7ea5ce",
"n9 c #7ba2cc",
"o9 c #789fca",
"p9 c #6e96c2",
"q9 c #6b93c0",
"r9 c #6891bd",
"s9 c #648dbb",
"t9 c #638bb7",
"u9 c #acb5bf",
"v9 c #ccced1",
"w9 c #456491",
"x9 c #dbdbdb",
"y9 c #d6d6d6",
"z9 c #bcbcbc",
"0: c #cfd0d1",
"1: c #aeb7c7",
"2: c #7fa3d4",
"3: c #7ca4ce",
"4: c #7da4ce",
"5: c #7ca4cd",
"6: c #7ca2cc",
"7: c #79a0ca",
"8: c #6d96c1",
"9: c #6790bc",
":: c #638cba",
";: c #5f89b7",
"A: c #82a4d7",
"B: c #b6bcc6",
"C: c #c8cacc",
"D: c #d2d2d2",
"E: c #d0d0d0",
"F: c #ebebeb",
"G: c #a3aab5",
"H: c #4d75b2",
"I: c #87a9e4",
"J: c #80a3d5",
"K: c #749bc8",
"L: c #7aa1cb",
"M: c #79a1ca",
"N: c #78a0ca",
"O: c #749bc7",
"P: c #6c94c0",
"Q: c #6891be",
"R: c #668ebb",
"S: c #658ebc",
"T: c #7fa2d6",
"U: c #87aae4",
"V: c #3d649e",
"W: c #b1b6be",
"X: c #cacaca",
"Y: c #e7e7e7",
"Z: c #e9e9e9",
"a: c #c0c0c0",
"b: c #204c88",
"c: c #4c74b3",
"d: c #88abdf",
"e: c #789ecb",
"f: c #759cc8",
"g: c #779dc8",
"h: c #779ec9",
"i: c #769dc8",
"j: c #7299c5",
"k: c #6f97c3",
"l: c #6a92bf",
"m: c #6790bd",
"n: c #7197c7",
"o: c #89abe2",
"p: c #7ca1de",
"q: c #3d65a3",
"r: c #c6c6c6",
"s: c #e5e5e5",
"t: c #e1e1e1",
"u: c #c4c4c4",
"v: c #ececec",
"w: c #c3c3c3",
"x: c #305a97",
"y: c #769cd7",
"z: c #8bade4",
"0; c #7fa3d5",
"1; c #759cc7",
"2; c #739bc6",
"3; c #729bc5",
"4; c #729ac5",
"5; c #7198c4",
"6; c #6f96c3",
"7; c #6c95c1",
"8; c #6a92c0",
"9; c #6d95c3",
":; c #86a9e4",
";; c #638bc9",
"A; c #c9c9c9",
"B; c #bfbfbf",
"C; c #d3d3d3",
"D; c #ededed",
"E; c #c5c5c5",
"F; c #5079b7",
"G; c #83a7e3",
"H; c #89abe4",
"I; c #86a8dd",
"J; c #7fa4d5",
"K; c #7da1d3",
"L; c #7a9fd0",
"M; c #7ca1d2",
"N; c #7ea2d5",
"O; c #82a5dd",
"P; c #83a7e4",
"Q; c #759cdb",
"R; c #3e68a7",
"S; c #eeeeee",
"T; c #cbcbcb",
"U; c #b3b3b3",
"V; c #264f8d",
"W; c #4169a8",
"X; c #6188c7",
"Y; c #7298d6",
"Z; c #799edd",
"a; c #7da3e2",
"b; c #769ddb",
"c; c #6a92d3",
"d; c #5981c1",
"e; c #3962a1",
"f; c #224b89",
"g; c #bebebe",
"h; c #b2b2b2",
"i; c #204b87",
"j; c #214b88",
"k; c #204a87",
"                                          k;j;i;k;i;j;k;                                        ",
"                h;g;                k;f;e;d;c;b;a;Z;Y;X;W;V;k;                g;U;              ",
"                T;S;T;          k;k;R;Q;P;O;N;M;L;K;J;I;H;G;F;j;k;          E;D;C;              ",
"                B;S;S;A;      k;V;;;:;N;9;8;7;6;5;4;3;2;1;0;z:y:x:k;      w:v:S;u:              ",
"                  t:s:D;r:  k;q:p:o:n:m:l:7;k:j:2;1;i:h:g:f:e:d::;c:b:  a:v:s:Z:                ",
"                  T;Y:X:v:W:V:U:T:S:R:Q:P:6;j:O:h:N:M:L:L:N:h:K:J:I:H:G:F:E:t:D:                ",
"                    F:E;C:v:B:A:;:::9:l:8:5;2;h:7:6:5:4:3:6:M:h:2;2:1:Z:0:g;S;z9                ",
"                    y9x9w9v9F:u9t9s9r9q9p9j:1;o9n9m9l9k9l9j96:i9h9g9v:f9e9d9c9                  ",
"                    b9Z:a9Z9Y9X9W9V9U9T9S94;i:M:R9l9Q9P9Q9l9O9N9v:v:M9L9K9J9r:                  ",
"                      I9H9G9F9E9D9D;S;C9B9A9;9:999897969594939v:S;S;v:291909                    ",
"                  k;z8y8x8w8v8u8v:S;S;S;t8s8w8v8r8q8p8o8n8m8l8v:S;S;v:k8j8i8h8                  ",
"              k;k;g8f8e8d8c8b8a8X9S;S;D;Z8Y8c8b8X8W8V8U8T8S8R8Q8v:v:P8O8N8e8M8z8k;              ",
"            L8K8J8I8H8G8F8E8Q:D8C8F:v:B8A8;8E8k::8982;O:88t:78685848382818J;08z7y7x7            ",
"          99w7v7o:u7t7s7E8r7q7p7o7n7m7F:X9l7k7j:j7i718h7c9g7f7e7d7c7b7:8a7i7Z7Y7U:X7W7          ",
"        L8V7U7T7S7R7Q7P7E8O7V7U7N7M7L7K7t:t:J7f:h:7:I7H7s:G7h:i7F7E7D7C7e:7:h:i7F7E7X7x7        ",
"      k;B7A7;7:797m:s7p987B7A7;7:797m:s77767J957473727R817R9L:h:j707z6y6x6R9L:h:j707z6y6k;      ",
"      k;w6z:v6u6t6s6r6q6k;w6z:v6u6t6s6r6k:p678o6n6m6l6k6j6i6R97:i7h6g6f6e6d6R97:i7h6g6f6z8      ",
"    k;c6b6a6Z6q6S:Y6P7X6c6b6a6Z6q6S:Y6P7k7W6V6U6y9l6T6P9S6j6R6Q6182;P6O6N6M6R6Q6182;P6O6N6k;    ",
"    L6K6J6I6H6q6G6Y6F699K6J6I6H6q6G6Y6P7k7E6D6C6X9E;B6A6;6:6R696h:O:867666564696h:O:86766636    ",
"    260816I6Z6q6S:Y606260816I6Z6q6S:Y6P7k7z5y5F:x5R8w5v5S6u5R6Q6182;k7k:U:n8t5Q6182;k7k:U:n8    ",
"  s5r5q5p5I6o5u6t6Q:n5m5q5p5I6o5u6t6Q:r6l5C:v:k5j5i5X9C6h5i6R97:i798k:r6g5f5e57:i798k:r6g5d5s5  ",
"  c5b5p8a5Z5Y5:797m:X5b5p8a5Z5Y5:797m:W5V5v:U5T5L:S5W9v:R5Q5L:h:1;:8G8F8P5O5N5h:1;:8G8F8P5O5M5  ",
"  i;L5K5J5I5H5G5F5R7E5L5K5J5I5H5G5F5D5C5v:B5A5f:;5:59585D;7565f:4;k:P755453525f:4;k:P7554535i;  ",
"  s51505z4y4x4Z6u6t6w41505z4y4x4Z6v4u4F:t4s4r4q4p4o4n4m4l4v:k4m4j4E8s7s6i4a;99h4j4E8s7s6i4a;L6  ",
"  i;g4f4e4d4c4b4a4a4Z4g4f4e4d4c4b4Y4l6X4W4V4U4T4S4R4Q4Q4::t4F:P4O4N4t7G6M4L4K4J4I4N4t7G6M4L4i;  ",
"  c5H4G4F4E4D4C4B4A4;4H4G4F4E4D4:478x9948474645444T43424341404Z:z3y3x3w3v3u3t3s3r3y3x3w3v3u3q3  ",
"  s5p3o3n3e4d4m3l3k3j3i3o3n3e4h3J9t:g3f3e3d3c3b3V454a3U4a354Z3x9s:Y3e3X3W3V3U3T3c384e3X3W3S3s5  ",
"    E5R3Q3P3O3N3c4M3L3E5R3Q3K3B878J3M3I3f3H3G3F3c3y3b3b3b3y3c3E3t:t:D3C3B3y8A3F3G3;3f3C3B3y8    ",
"    L6:393F483E4N3c473L6635343X933N3c4l3231303;3G3d3d384d3d3G3;3z2s:U6y2x2w2v2;3u21323t2x2s2    ",
"    k;r2q2p2o283E4N3n2m2l2D;S;k2j2i2N3h2g2f2I313f3u2u2H3u2u2f313I3e2l604d2c2b213I3f2a2B3Z2k;    ",
"      k;Y2o3X2o283z4W2V2v:S;S;S;U2T2z4d4D4c4g2S2B4k3R2R2R2k3B4S2g223Q2v:P2O2N2S2g2M2L2K2k;      ",
"      k;i;J2I2H2o2G2x7F2X9S;S;D;E2D2G2C2B2N3D4c4A2C4g2g2g2C4A2c4;2:29282D;7262c4;2:252K8k;      ",
"        L84232I2X2o222F:M9F:v:1202z1o2y183O3B2d4N3x1D4D4D4x1N3w1v1o3u1t1s1v:r1w1v1o3u1L8        ",
"          9942J2o3q167J9p1o1n1m1l1k1j1F4o2y1F4e4C2z4z4E4z4z4i1h1g1f1e1d1c1b1Y:a1g1Z199          ",
"            L8i;Y1X178W1V1U1T1S1W2Y2q293Q3R1o2o2y1y1P3C2Q1f4P1O1N1M1A4X3W3L1K1J9J1L8            ",
"              I1H1F:G1E5R3Q3P3F1E1D1C1:3R3o3G4B1A115;1:1B39181D17161f3C3B3y851l641              ",
"              B;D;312111:393F483E401z0y0E5i3H4g415L5b5x026L6w0v0u21323t2x2z8u0t0v:s0            ",
"            r0X9q0  p0o0n0q2j1o283E4N3m0l0j3k0N2s5j0K8i0h0g0f313I3f2a2B3f0e0d0  r:v:c0          ",
"          b0s:U6a:t:v:a0Z0Y2o3X2o283z4d4D4c4g2S2B4k3R2R2R2k3B4S2g2M2L2K2Y0X0v:78w:C;l6W0        ",
"          x9S;s:v:D:V0  U0T0J2I2H2o2G2C2B2N3D4c4A2C4g2g2g2C4A2c4;2:252B7S0  R0Q0F:R8D;t:        ",
"        s0S;F:E:P0        O0N032I2X2o2y183O3B2d4N3x1D4D4D4x1N3w1v1o3M0L0        R0q0Z:S;D:      ",
"        K0J0I0            H0G0N0J2o3j1F4o2y1F4e4C2z4z4E4z4z4i1h1g1F0E0              D0J0z9      ",
"                              L0T0Y2q293Q3R1o2o2y1y1P3C2Q1f4P1O1C0B0                            ",
"                                S0Y0A0:3R3o3G4B1A115;1:1B391;0Y0:0                              ",
"                                    9011E580H4g415L5b570261160                                  ",
"                                        504030201020304000                                      ",
"                                                                                                ",
"                                                                                                "};
