/* XPM */
static char *image[] = {
"48 48 58 1",
"  c None",
"0 c #a3a2a1",
"1 c #d1d0cd",
"2 c #a4a3a1",
"3 c #c8c7c6",
"4 c #ebeae8",
"5 c #e9e8e6",
"6 c #ebebe9",
"7 c #d2d1cf",
"8 c #eceae9",
"9 c #f0efee",
": c #858582",
"; c #2169c1",
"A c #246bc1",
"B c #82a6d3",
"C c #91908f",
"D c #a7a6a5",
"E c #2f7bd7",
"F c #3584e3",
"G c #ababa9",
"H c #b2b2b0",
"I c #aaaaa8",
"J c #b2b1b0",
"K c #9a9a99",
"L c #a0a09e",
"M c #7d7d7c",
"N c #2f7fe1",
"O c #287bde",
"P c #317bd4",
"Q c #3480de",
"R c #8ca2b9",
"S c #4b7cb7",
"T c #4c7db7",
"U c #a7a6a3",
"V c #94aac0",
"W c #7fa3cf",
"X c #a6b9ce",
"Y c #d0d0cd",
"Z c #8db1de",
"a c #5b94d9",
"b c #d7d9da",
"c c #deddda",
"d c #d6d9db",
"e c #609ae2",
"f c #7b7b7a",
"g c #478ee3",
"h c #3584e4",
"i c #468de4",
"j c #dedddc",
"k c #9cc1ec",
"l c #9ec2ed",
"m c #dae5f2",
"n c #dfdedd",
"o c #aeadac",
"p c #e8e7e6",
"q c #f6f5f4",
"r c #e8e8e7",
"s c #afaead",
"                                                ",
"                                                ",
"                                                ",
"         srqqqqqqqqqqqqqqqqqqqqqqqqqqpo         ",
"        nmlkkkkkkkkkkkkkkkkkkkkkkkkkklmj        ",
"        qihhhhhhhhhhhhhhhhhhhhhhhhhhhhgq        ",
"       fqhhhhhhhhhhhhhhhhhhhhhhhhhhhhhhqf       ",
"       fqhhhhhhhhhhhhhhhhhhhhhhhhhhhhhhqf       ",
"       fqhhhhhhhhhhhhhhhhhhhhhhhhhhhhhhqf       ",
"       fqhhhhhhhhhhedccccccbahhhhhhhhhhqf       ",
"       fqhhhhhhhhhhZYXXXXXXYWhhhhhhhhhhqf       ",
"       fqhhhhhhhhhhVUTSSSSSURhhhhhhhhhhqf       ",
"       fqhhhhhhhhhhQPPPPPPPPQhhhhhhhhhhqf       ",
"       fqhhhhhhhhhhhhhhhhhhhhhhhhhhhhhhqf       ",
"       fqhhhhhhhhhhhhhhhhhhhhhhhhhhhhhhqf       ",
"       fqhhhhhhhhhhhhhhhhhhhhhhhhhhhhhhqf       ",
"       fqOOOOOOOOOOOOOOOOOOOOOOOOOOOOOOqf       ",
"       fqNNNNNNNNNNNNNNNNNNNNNNNNNNNNNNqf       ",
"       fqhhhhhhhhhhhhhhhhhhhhhhhhhhhhhhqf       ",
"       fqhhhhhhhhhhhhhhhhhhhhhhhhhhhhhhqf       ",
"       fqhhhhhhhhhhhhhhhhhhhhhhhhhhhhhhqf       ",
"       fqhhhhhhhhhhedccccccbahhhhhhhhhhqf       ",
"       fqhhhhhhhhhhZYXXXXXXYWhhhhhhhhhhqf       ",
"       fqhhhhhhhhhhVUTSSSSSURhhhhhhhhhhqf       ",
"       MqhhhhhhhhhhQPPPPPPPPQhhhhhhhhhhqM       ",
"       LqhhhhhhhhhhhhhhhhhhhhhhhhhhhhhhqK       ",
"       JqhhhhhhhhhhhhhhhhhhhhhhhhhhhhhhqI       ",
"       HqhhhhhhhhhhhhhhhhhhhhhhhhhhhhhhqG       ",
"       HqOOOOOOOOOOOOOOOOOOOOOOOOOOOOOOqG       ",
"       HqNNNNNNNNNNNNNNNNNNNNNNNNNNNNNNqG       ",
"       HqhhhhhhhhhhhhhhhhhhhhhhhhhhhhhhqG       ",
"       HqhhhhhhhhhhhhhhhhhhhhhhhhhhhhhhqG       ",
"       HqhhhhhhhhhhhhhhhhhhhhhhhhhhhhhhqG       ",
"       HqhhhhhhhhhhedccccccbahhhhhhhhhhqG       ",
"       HqhhhhhhhhhhZYXXXXXXYWhhhhhhhhhhqG       ",
"       HqhhhhhhhhhhVUTSSSSSURhhhhhhhhhhqG       ",
"       HqhhhhhhhhhhQPPPPPPPPQhhhhhhhhhhqG       ",
"       HqhhhhhhhhhhhhhhhhhhhhhhhhhhhhhhqG       ",
"       HqhhhhhhhhhhhhhhhhhhhhhhhhhhhhhhqG       ",
"       HqFhhhhhhhhhhhhhhhhhhhhhhhhhhhhFqG       ",
"       sqEhhhhhhhhhhhhhhhhhhhhhhhhhhhhEqD       ",
"       CqBA;;;;;;;;;;;;;;;;;;;;;;;;;;ABq:       ",
"        9qqqqqqqqqqqqqqqqqqqqqqqqqqqqqq8        ",
"        76544444444444444444444444444563        ",
"         21cccccccccccccccccccccccccc10         ",
"                                                ",
"                                                ",
"                                                "};
