/* XPM */
static char *image[] = {
"48 48 118 2",
"   c None",
"00 c #767674",
"10 c #cfcecb",
"20 c #abaaa8",
"30 c #deddda",
"40 c #acaba8",
"50 c #ecebe9",
"60 c #eaeae7",
"70 c #c8d3ec",
"80 c #81dfd9",
"90 c #33d1c6",
":0 c #ddf0ee",
";0 c #31c5c7",
"A0 c #34d1c6",
"B0 c #80dfd9",
"C0 c #f4f5f4",
"D0 c #2da2cb",
"E0 c #2fb4c9",
"F0 c #5fd0d1",
"G0 c #ceeeea",
"H0 c #f8e1d1",
"I0 c #faa375",
"J0 c #f98158",
"K0 c #f35c64",
"L0 c #f27385",
"M0 c #f5ced6",
"N0 c #235dd2",
"O0 c #2880cf",
"P0 c #2a91cd",
"Q0 c #46add1",
"R0 c #b4dfe6",
"S0 c #f5f5f4",
"T0 c #f7ede3",
"U0 c #fc9d57",
"V0 c #ef4b71",
"W0 c #f5e2e7",
"X0 c #3369d5",
"Y0 c #266ed0",
"Z0 c #3085d1",
"a0 c #90c3e0",
"b0 c #eef1f2",
"c0 c #fad5b0",
"d0 c #f3a7bd",
"e0 c #c7d3ec",
"f0 c #92b5e3",
"g0 c #dfe8f0",
"h0 c #fbcc9e",
"i0 c #f294b0",
"j0 c #f6c899",
"k0 c #ed90ab",
"l0 c #ededea",
"m0 c #f2c494",
"n0 c #e98ca6",
"o0 c #cfa3d7",
"p0 c #ba63cd",
"q0 c #bf72d0",
"r0 c #cfa2d7",
"s0 c #e4e0e0",
"t0 c #efcaa4",
"u0 c #fd974c",
"v0 c #ef3f68",
"w0 c #e99eb2",
"x0 c #b87cd4",
"y0 c #ab5dd0",
"z0 c #b87bd4",
"01 c #e3e0e0",
"11 c #e8dfd2",
"21 c #fb9c56",
"31 c #fb8a50",
"41 c #f97e54",
"51 c #f35860",
"61 c #f14c64",
"71 c #ee4a70",
"81 c #e6d4d6",
"91 c #c1a0da",
":1 c #9c5bd2",
";1 c #c09fd9",
"A1 c #ebd5c1",
"B1 c #f69f71",
"C1 c #f88057",
"D1 c #f77158",
"E1 c #f5655c",
"F1 c #f25b63",
"G1 c #ee6f80",
"H1 c #e8c2c7",
"I1 c #9a6dd7",
"J1 c #8e59d5",
"K1 c #9a6cd7",
"L1 c #825bd9",
"M1 c #8057d9",
"N1 c #825ad9",
"O1 c #8268dd",
"P1 c #7254dc",
"Q1 c #8167dd",
"R1 c #a49be0",
"S1 c #6452df",
"T1 c #a39ae0",
"U1 c #7571e1",
"V1 c #5550e1",
"W1 c #7470e1",
"X1 c #e0e0e1",
"Y1 c #9598e2",
"Z1 c #4a50e4",
"a1 c #5c61e4",
"b1 c #9497e2",
"c1 c #dfdfe1",
"d1 c #e5e5e1",
"e1 c #eeedeb",
"f1 c #b0b0ae",
"g1 c #737371",
"h1 c #7b7b7a",
"i1 c #f6f5f4",
"j1 c #edeceb",
"k1 c #dbdad8",
"l1 c #ebeae9",
"m1 c #c7c6c4",
"n1 c #c0bfbc",
"o1 c #c4c3c1",
"                                                                                                ",
"                                                                                                ",
"                                                                                                ",
"                                      o1n1n1n1n1n1n1n1n1m1                                      ",
"                                    l1k1n1n1n1n1n1n1n1n1k1j1                                    ",
"                                  l1i1k1n1n1n1n1n1n1n1n1k1i1j1                                  ",
"                                h1i1i1h1                h1i1i1h1                                ",
"                                h1i1i1h1                h1i1i1h1                                ",
"                                h1i1i1h1                h1i1i1h1                                ",
"                                h1i1i1h1                h1i1i1h1                                ",
"      g1g1g1g1g1g1g1g1g1g1g1g1g1f1e1e1f1g1g1g1g1g1g1g1g1f1e1e1f1g1g1g1g1g1g1g1g1g1g1g1g1g1      ",
"      d1d1d1d1d1d1d1d1d1d1d1d1d1d1d1d1d1d1d1d1d1d1d1d1d1d1d1d1d1d1d1d1d1d1d1d1d1d1d1d1d1d1      ",
"      d1d1d1d1d1d1d1d1d1d1d1d1d1d1d1d1d1d1d1d1d1d1d1d1d1d1d1d1d1d1d1d1d1d1d1d1d1d1d1d1d1d1      ",
"      d1d1d1d1d1d1d1d1d1d1d1d1d1d1d1d1d1d1d1d1d1d1d1d1d1d1d1d1d1d1d1d1d1d1d1d1d1d1d1d1d1d1      ",
"      d1d1d1d1d1d1d1d1d1d1d1d1d1d1d1d1d1d1d1d1d1d1d1d1d1d1d1d1d1d1d1d1d1d1d1d1d1d1d1d1d1d1      ",
"      d1d1d1d1d1d1d1d1d1d1d1d1d1d1d1d1d1d1d1d1d1d1c1b1a1Z1a1Y1X1d1d1d1d1d1d1d1d1d1d1d1d1d1      ",
"      d1d1d1d1d1d1d1d1d1d1d1d1d1d1d1d1d1d1d1d1d1c1W1V1V1V1V1V1U1X1d1d1d1d1d1d1d1d1d1d1d1d1      ",
"      d1d1d1d1d1d1d1d1d1d1d1d1d1d1d1d1d1d1d1d1d1T1S1S1S1S1S1S1S1R1d1d1d1d1d1d1d1d1d1d1d1d1      ",
"      d1d1d1d1d1d1d1d1d1d1d1d1d1d1d1d1d1d1d1d1d1Q1P1P1P1P1P1P1P1O1d1d1d1d1d1d1d1d1d1d1d1d1      ",
"      d1d1d1d1d1d1d1d1d1d1d1d1d1d1d1d1d1d1d1d1d1N1M1M1M1M1M1M1M1L1d1d1d1d1d1d1d1d1d1d1d1d1      ",
"      d1d1d1d1d1d1d1d1d1d1d1d1d1d1d1d1d1d1d1d1d1K1J1J1J1J1J1J1J1I1d1d1d1d1d1d1d1d1d1d1d1d1      ",
"      d1d1d1d1d1d1d1d1d1d1d1H1G1F1E1D1C1B1A1d1d1;1:1:1:1:1:1:1:191d1d1d1d1d1d1d1d1d1d1d1d1      ",
"      d1d1d1d1d1d1d1d1d1d181716151E1D141312111d101z0y0y0y0y0y0x001d1d1d1d1d1d1d1d1d1d1d1d1      ",
"      d1d1d1d1d1d1d1d1d1d1w0v06151E1D14131u0t0d1d1s0r0q0p0q0o0s0d1d1d1d1d1d1d1d1d1d1d1d1d1      ",
"      d1d1d1d1d1d1d1d1d1d1n0v06151E1D14131u0m0d1d1d1d1d1d1d1d1d1d1d1d1d1d1d1d1d1d1d1d1d1d1      ",
"      l0l0l0l0l0l0l0l0l0l0k0v06151E1D14131u0j0l0l0l0l0l0l0l0l0l0l0l0l0l0l0l0l0l0l0l0l0l0l0      ",
"      i1i1i1i1i1i1i1i1i1i1i0v06151E1D14131u0h0i1i1i1i1i1i1i1g0f0e0i1i1i1i1i1i1i1i1i1i1i1i1      ",
"      i1i1i1i1i1i1i1i1i1i1d0v06151E1D14131u0c0i1i1i1i1i1b0a0Z0Y0X0i1i1i1i1i1i1i1i1i1i1i1i1      ",
"      i1i1i1i1i1i1i1i1i1i1W0V06151E1D14131U0T0i1i1i1S0R0Q0P0O0Y0N0i1i1i1i1i1i1i1i1i1i1i1i1      ",
"      i1i1i1i1i1i1i1i1i1i1i1M0L0K0E1D1J0I0H0i1i1i1G0F0E0D0P0O0Y0N0i1i1i1i1i1i1i1i1i1i1i1i1      ",
"      i1i1i1i1i1i1i1i1i1i1i1i1i1i1i1i1i1i1i1i1C0B0A0;0E0D0P0O0Y0N0i1i1i1i1i1i1i1i1i1i1i1i1      ",
"      i1i1i1i1i1i1i1i1i1i1i1i1i1i1i1i1i1i1i1i1:09090;0E0D0P0O0Y0N0i1i1i1i1i1i1i1i1i1i1i1i1      ",
"      i1i1i1i1i1i1i1i1i1i1i1i1i1i1i1i1i1i1i1i1S080A0;0E0D0P0O0Y0N0i1i1i1i1i1i1i1i1i1i1i1i1      ",
"      i1i1i1i1i1i1i1i1i1i1i1i1i1i1i1i1i1i1i1i1i1i1G0F0E0D0P0O0Y0N0i1i1i1i1i1i1i1i1i1i1i1i1      ",
"      i1i1i1i1i1i1i1i1i1i1i1i1i1i1i1i1i1i1i1i1i1i1i1S0R0Q0P0O0Y0N0i1i1i1i1i1i1i1i1i1i1i1i1      ",
"      i1i1i1i1i1i1i1i1i1i1i1i1i1i1i1i1i1i1i1i1i1i1i1i1i1b0a0Z0Y0X0i1i1i1i1i1i1i1i1i1i1i1i1      ",
"      i1i1i1i1i1i1i1i1i1i1i1i1i1i1i1i1i1i1i1i1i1i1i1i1i1i1i1g0f070i1i1i1i1i1i1i1i1i1i1i1i1      ",
"      i1i1i1i1i1i1i1i1i1i1i1i1i1i1i1i1i1i1i1i1i1i1i1i1i1i1i1i1i1i1i1i1i1i1i1i1i1i1i1i1i1i1      ",
"      i1i1i1i1i1i1i1i1i1i1i1i1i1i1i1i1i1i1i1i1i1i1i1i1i1i1i1i1i1i1i1i1i1i1i1i1i1i1i1i1i1i1      ",
"      i1i1i1i1i1i1i1i1i1i1i1i1i1i1i1i1i1i1i1i1i1i1i1i1i1i1i1i1i1i1i1i1i1i1i1i1i1i1i1i1i1i1      ",
"      605050505050505050505050505050505050505050505050505050505050505050505050505050505060      ",
"      403030303030303030303030303030303030303030303030303030303030303030303030303030303020      ",
"        10303030303030303030303030303030303030303030303030303030303030303030303030303010        ",
"            000000000000000000000000000000000000000000000000000000000000000000000000            ",
"                                                                                                ",
"                                                                                                ",
"                                                                                                ",
"                                                                                                "};
