/* XPM */
static char *image[] = {
"32 32 673 2",
"   c None",
"00 c #4a302a",
"10 c #67473f",
"20 c #6e4e44",
"30 c #6d4d44",
"40 c #6e4e45",
"50 c #6f4f46",
"60 c #6e4f45",
"70 c #6c4e45",
"80 c #6d5047",
"90 c #6a4f46",
":0 c #6b4f47",
";0 c #684e47",
"A0 c #654d46",
"B0 c #674e46",
"C0 c #644d46",
"D0 c #624d46",
"E0 c #624c46",
"F0 c #614d47",
"G0 c #634e47",
"H0 c #664f49",
"I0 c #644e49",
"J0 c #604d48",
"K0 c #594742",
"L0 c #3f2f2c",
"M0 c #715147",
"N0 c #8f6d5f",
"O0 c #866957",
"P0 c #826755",
"Q0 c #876c59",
"R0 c #866d5a",
"S0 c #846d5b",
"T0 c #856c59",
"U0 c #876f5d",
"V0 c #846e5c",
"W0 c #846e5d",
"X0 c #826e5e",
"Y0 c #7f6c5d",
"Z0 c #7f6a5b",
"a0 c #7e6c5e",
"b0 c #7c6c5e",
"c0 c #7d6c5e",
"d0 c #7a6c5f",
"e0 c #76695d",
"f0 c #7e6f61",
"g0 c #816e61",
"h0 c #806d60",
"i0 c #7f6e61",
"j0 c #7b6c60",
"k0 c #8b7c6e",
"l0 c #978477",
"m0 c #62514c",
"n0 c #7a594d",
"o0 c #7d5c50",
"p0 c #2f221b",
"q0 c #0a0705",
"r0 c #040302",
"s0 c #050302",
"t0 c #060302",
"u0 c #060402",
"v0 c #070402",
"w0 c #080403",
"x0 c #090403",
"y0 c #090503",
"z0 c #0a0503",
"01 c #0b0503",
"11 c #120b08",
"21 c #42382f",
"31 c #938577",
"41 c #5d4f4a",
"51 c #62493c",
"61 c #815f54",
"71 c #231512",
"81 c #000000",
"91 c #090200",
":1 c #070000",
";1 c #3f362f",
"A1 c #897c73",
"B1 c #352a28",
"C1 c #856655",
"D1 c #64473f",
"E1 c #060202",
"F1 c #080200",
"G1 c #0a0201",
"H1 c #0b0200",
"I1 c #140c09",
"J1 c #7a7168",
"K1 c #463e3c",
"L1 c #886a58",
"M1 c #563c35",
"N1 c #010000",
"O1 c #060101",
"P1 c #080201",
"Q1 c #0f0604",
"R1 c #675f58",
"S1 c #47403e",
"T1 c #846756",
"U1 c #533932",
"V1 c #020000",
"W1 c #0a0300",
"X1 c #1c0800",
"Y1 c #2d0d00",
"Z1 c #330a00",
"a1 c #3e1101",
"b1 c #3c1002",
"c1 c #380e01",
"d1 c #340d01",
"e1 c #320c01",
"f1 c #370e01",
"g1 c #390f01",
"h1 c #340e01",
"i1 c #320d01",
"j1 c #270a01",
"k1 c #6d645d",
"l1 c #715d4f",
"m1 c #48352f",
"n1 c #020100",
"o1 c #130600",
"p1 c #511b01",
"q1 c #7f2908",
"r1 c #8a2d0f",
"s1 c #8a3017",
"t1 c #772314",
"u1 c #742617",
"v1 c #823021",
"w1 c #7a2a1b",
"x1 c #7b2d1e",
"y1 c #772b1e",
"z1 c #772a1c",
"02 c #772919",
"12 c #782b1b",
"22 c #6f281a",
"32 c #6a271a",
"42 c #4d1c14",
"52 c #0f0503",
"62 c #100704",
"72 c #67605a",
"82 c #4a413f",
"92 c #6d5e51",
":2 c #41322d",
";2 c #030100",
"A2 c #270a00",
"B2 c #8b2f08",
"C2 c #8e361b",
"D2 c #773327",
"E2 c #70332c",
"F2 c #6f3029",
"G2 c #66251e",
"H2 c #692821",
"I2 c #632721",
"J2 c #6b2e28",
"K2 c #72332d",
"L2 c #652923",
"M2 c #60231d",
"N2 c #60231e",
"O2 c #5b231e",
"P2 c #592621",
"Q2 c #441f1b",
"R2 c #100604",
"S2 c #6a635d",
"T2 c #4a4240",
"U2 c #776455",
"V2 c #46342e",
"W2 c #2a1503",
"X2 c #8c330a",
"Y2 c #7b2d20",
"Z2 c #68312c",
"a2 c #682d27",
"b2 c #692e28",
"c2 c #723632",
"d2 c #71342f",
"e2 c #783833",
"f2 c #71322e",
"g2 c #6d3230",
"h2 c #793f3c",
"i2 c #713835",
"j2 c #662822",
"k2 c #60201a",
"l2 c #59201b",
"m2 c #5d2723",
"n2 c #461d19",
"o2 c #110604",
"p2 c #120704",
"q2 c #69635d",
"r2 c #47403f",
"s2 c #6c5c4f",
"t2 c #3f2f2a",
"u2 c #050101",
"v2 c #040100",
"w2 c #0d0501",
"x2 c #8e4711",
"y2 c #8c391c",
"z2 c #6f302a",
"03 c #642d29",
"13 c #6c2c25",
"23 c #6b312c",
"33 c #713633",
"43 c #6c3f45",
"53 c #674653",
"63 c #664654",
"73 c #6a5163",
"83 c #6c556a",
"93 c #705869",
":3 c #73474f",
";3 c #6f342f",
"A3 c #662e2a",
"B3 c #642b26",
"C3 c #622d2a",
"D3 c #48201c",
"E3 c #110704",
"F3 c #130704",
"G3 c #66605a",
"H3 c #443e3c",
"I3 c #645549",
"J3 c #3d2d28",
"K3 c #060201",
"L3 c #030000",
"M3 c #3d170b",
"N3 c #a1492a",
"O3 c #6f312b",
"P3 c #71322c",
"Q3 c #6e312c",
"R3 c #703736",
"S3 c #4d333c",
"T3 c #1f161a",
"U3 c #11090a",
"V3 c #100808",
"W3 c #110808",
"X3 c #100807",
"Y3 c #0f0605",
"Z3 c #552927",
"a3 c #703734",
"b3 c #69322e",
"c3 c #672c27",
"d3 c #5b2825",
"e3 c #441c1a",
"f3 c #120705",
"g3 c #65605a",
"h3 c #403b3a",
"i3 c #6b584b",
"j3 c #402e28",
"k3 c #060100",
"l3 c #060200",
"m3 c #732e1a",
"n3 c #904336",
"o3 c #6a3432",
"p3 c #692c26",
"q3 c #733530",
"r3 c #783935",
"s3 c #552f33",
"t3 c #10090a",
"u3 c #0b0300",
"v3 c #0c0300",
"w3 c #502725",
"x3 c #6c3836",
"y3 c #66322f",
"z3 c #612a27",
"04 c #582421",
"14 c #431f1c",
"24 c #130805",
"34 c #140804",
"44 c #615e59",
"54 c #3c3837",
"64 c #665246",
"74 c #3c2a25",
"84 c #070200",
"94 c #0d0402",
":4 c #783327",
";4 c #84443f",
"A4 c #763732",
"B4 c #6b2e2a",
"C4 c #6b3330",
"D4 c #713f40",
"E4 c #28191c",
"F4 c #4e2725",
"G4 c #6a3a39",
"H4 c #653636",
"I4 c #673534",
"J4 c #602e2b",
"K4 c #492422",
"L4 c #140705",
"M4 c #150805",
"N4 c #5c5954",
"O4 c #65564a",
"P4 c #372925",
"Q4 c #070201",
"R4 c #050100",
"S4 c #210a04",
"T4 c #803a2f",
"U4 c #7e4645",
"V4 c #723631",
"W4 c #6c3331",
"X4 c #6c3534",
"Y4 c #643838",
"Z4 c #190c0b",
"a4 c #0d0401",
"b4 c #4f2726",
"c4 c #6c3e3f",
"d4 c #6c3b3b",
"e4 c #673535",
"f4 c #633535",
"g4 c #502e2e",
"h4 c #150806",
"i4 c #160805",
"j4 c #5a5854",
"k4 c #373534",
"l4 c #645347",
"m4 c #392925",
"n4 c #0c0402",
"o4 c #311209",
"p4 c #68260c",
"q4 c #8d3413",
"r4 c #8a3f30",
"s4 c #6e3d3e",
"t4 c #6b3533",
"u4 c #6c3736",
"v4 c #713e3f",
"w4 c #723a36",
"x4 c #5f271b",
"y4 c #381812",
"z4 c #180905",
"05 c #5a2e2a",
"15 c #754445",
"25 c #6f4042",
"35 c #622f2e",
"45 c #6f3e3f",
"55 c #583839",
"65 c #170a07",
"75 c #160804",
"85 c #54524e",
"95 c #323130",
":5 c #66584c",
";5 c #392924",
"A5 c #120706",
"B5 c #603937",
"C5 c #a57677",
"D5 c #a0767b",
"E5 c #704549",
"F5 c #66393a",
"G5 c #6d3b3b",
"H5 c #6d3736",
"I5 c #723937",
"J5 c #764447",
"K5 c #734b54",
"L5 c #62424b",
"M5 c #261414",
"N5 c #0e0300",
"O5 c #592d2b",
"P5 c #753f3f",
"Q5 c #744345",
"R5 c #744244",
"S5 c #5f3f41",
"T5 c #180a07",
"U5 c #170905",
"V5 c #575551",
"W5 c #2e2e2d",
"X5 c #5e544a",
"Y5 c #090201",
"Z5 c #090302",
"a5 c #1a1416",
"b5 c #4b4149",
"c5 c #7c545f",
"d5 c #704043",
"e5 c #69393b",
"f5 c #713f42",
"g5 c #7c484a",
"h5 c #6f4448",
"i5 c #271b1f",
"j5 c #110706",
"k5 c #562b2a",
"l5 c #78474a",
"m5 c #72464b",
"n5 c #734244",
"o5 c #784b50",
"p5 c #634145",
"q5 c #190b08",
"r5 c #56544f",
"s5 c #2d2d2c",
"t5 c #61554b",
"u5 c #302622",
"v5 c #0a0301",
"w5 c #0a0200",
"x5 c #13090a",
"y5 c #8e697c",
"z5 c #7d5057",
"06 c #6c3f42",
"16 c #7a4748",
"26 c #815258",
"36 c #73484d",
"46 c #21100e",
"56 c #573031",
"66 c #6f4347",
"76 c #683c3f",
"86 c #6b3a3b",
"96 c #724448",
":6 c #644143",
";6 c #180904",
"A6 c #51504b",
"B6 c #605449",
"C6 c #332723",
"D6 c #0e0402",
"E6 c #856c7c",
"F6 c #895f69",
"G6 c #76484c",
"H6 c #7d4849",
"I6 c #7c4b4e",
"J6 c #7f5259",
"K6 c #412220",
"L6 c #0f0300",
"M6 c #593334",
"N6 c #70454a",
"O6 c #6b4146",
"P6 c #6f4246",
"Q6 c #774a4f",
"R6 c #654246",
"S6 c #1b0c08",
"T6 c #190905",
"U6 c #53524d",
"V6 c #292a29",
"W6 c #5e554b",
"X6 c #2e2521",
"Y6 c #0b0301",
"Z6 c #0a0000",
"a6 c #605257",
"b6 c #a5828b",
"c6 c #774f58",
"d6 c #7f4b4d",
"e6 c #7d494d",
"f6 c #80545e",
"g6 c #723e3e",
"h6 c #260e09",
"i6 c #5c3434",
"j6 c #794f56",
"k6 c #784c51",
"l6 c #81565f",
"m6 c #66464c",
"n6 c #1c0c09",
"o6 c #190904",
"p6 c #4f4e49",
"q6 c #2a2a29",
"r6 c #5d544b",
"s6 c #2f2522",
"t6 c #0c0301",
"u6 c #251b1b",
"v6 c #ab949c",
"w6 c #88626d",
"x6 c #815a65",
"y6 c #825761",
"z6 c #845158",
"07 c #87575f",
"17 c #6f3b38",
"27 c #3c1911",
"37 c #260c04",
"47 c #1e0902",
"57 c #200a03",
"67 c #200a02",
"77 c #683631",
"87 c #815760",
"97 c #7c525a",
":7 c #835861",
";7 c #805762",
"A7 c #69474c",
"B7 c #1a0904",
"C7 c #4a4945",
"D7 c #242524",
"E7 c #59534a",
"F7 c #2b2320",
"G7 c #0d0200",
"H7 c #695d63",
"I7 c #b89ba5",
"J7 c #8b6572",
"K7 c #875a63",
"L7 c #86575f",
"M7 c #7f5a66",
"N7 c #845b66",
"O7 c #875458",
"P7 c #874740",
"Q7 c #894336",
"R7 c #914331",
"S7 c #9b452d",
"T7 c #9c4d37",
"U7 c #a0554a",
"V7 c #835963",
"W7 c #7f525a",
"X7 c #7e525a",
"Y7 c #79515b",
"Z7 c #6b494f",
"a7 c #1e0e0a",
"b7 c #474742",
"c7 c #222322",
"d7 c #575148",
"e7 c #28221f",
"f7 c #0d0301",
"g7 c #100400",
"h7 c #180d0b",
"i7 c #887c7f",
"j7 c #a5828a",
"k7 c #8a585f",
"l7 c #855c68",
"m7 c #835c69",
"n7 c #845d69",
"o7 c #87616f",
"p7 c #865d69",
"q7 c #8e6572",
"r7 c #95636b",
"s7 c #916068",
"t7 c #8b5e68",
"u7 c #85565f",
"v7 c #8b5a63",
"w7 c #885962",
"x7 c #805864",
"y7 c #79515c",
"z7 c #6f4f57",
"08 c #1f0e0b",
"18 c #1a0601",
"28 c #504f4a",
"38 c #262726",
"48 c #585249",
"58 c #292320",
"68 c #0e0401",
"78 c #100401",
"88 c #110400",
"98 c #170b09",
":8 c #58464a",
";8 c #b0969f",
"A8 c #a3808c",
"B8 c #926b79",
"C8 c #8b626e",
"D8 c #8d6776",
"E8 c #8a626f",
"F8 c #8e6878",
"G8 c #8f6a7a",
"H8 c #8f6979",
"I8 c #8b6270",
"J8 c #8b5359",
"K8 c #8e606b",
"L8 c #896474",
"M8 c #856170",
"N8 c #825c6a",
"O8 c #73535b",
"P8 c #210f0b",
"Q8 c #1b0904",
"R8 c #4c4c46",
"S8 c #262725",
"T8 c #595249",
"U8 c #2a2320",
"V8 c #110501",
"W8 c #140603",
"X8 c #372b2a",
"Y8 c #69585f",
"Z8 c #8d7985",
"a8 c #a28a92",
"b8 c #aa919b",
"c8 c #a98d99",
"d8 c #a98e9a",
"e8 c #a78c98",
"f8 c #a78993",
"g8 c #a98d97",
"h8 c #ab8b92",
"i8 c #a88890",
"j8 c #a78b97",
"k8 c #a48993",
"l8 c #a58791",
"m8 c #896c72",
"n8 c #220f0b",
"o8 c #1b0701",
"p8 c #1c0904",
"q8 c #4f4d47",
"r8 c #282826",
"s8 c #5c564d",
"t8 c #2a2421",
"u8 c #120501",
"v8 c #130300",
"w8 c #1a0b08",
"x8 c #291c19",
"y8 c #382b2a",
"z8 c #3f3130",
"09 c #423532",
"19 c #423533",
"29 c #433633",
"39 c #443633",
"49 c #453634",
"59 c #3b2a28",
"69 c #1d0904",
"79 c #1c0a04",
"89 c #4c4a44",
"99 c #262625",
":9 c #646056",
";9 c #322d29",
"A9 c #0f0401",
"B9 c #160500",
"C9 c #160400",
"D9 c #170400",
"E9 c #180400",
"F9 c #190400",
"G9 c #1a0500",
"H9 c #1b0a05",
"I9 c #3a3935",
"J9 c #21201f",
"K9 c #656458",
"L9 c #55524b",
"M9 c #100806",
"N9 c #150601",
"O9 c #160601",
"P9 c #170602",
"Q9 c #180602",
"R9 c #190702",
"S9 c #1a0702",
"T9 c #1b0702",
"U9 c #1c0702",
"V9 c #1d0702",
"W9 c #1d0802",
"X9 c #1c0701",
"Y9 c #190f0b",
"Z9 c #2c2b2a",
"a9 c #141312",
"b9 c #7b7c6e",
"c9 c #383631",
"d9 c #0f0705",
"e9 c #110401",
"f9 c #120401",
"g9 c #130401",
"h9 c #130501",
"i9 c #140501",
"j9 c #150501",
"k9 c #160501",
"l9 c #170501",
"m9 c #170601",
"n9 c #190601",
"o9 c #180601",
"p9 c #140906",
"q9 c #242322",
"r9 c #7c7e70",
"s9 c #56564f",
"t9 c #32302c",
"u9 c #292624",
"v9 c #272421",
"w9 c #282623",
"x9 c #242321",
"y9 c #262321",
"z9 c #272422",
"0: c #272522",
"1: c #282523",
"2: c #292623",
"3: c #282522",
"4: c #2a2826",
"5: c #333432",
"6: c #2b2b2a",
"7: c #6b6e61",
"8: c #6e7065",
"9: c #66675e",
":: c #606258",
";: c #62635a",
"A: c #5c5e56",
"B: c #5e6057",
"C: c #5d5f56",
"D: c #5f6058",
"E: c #61635a",
"F: c #62645a",
"G: c #5e6158",
"H: c #5f625a",
"I: c #5c6159",
"J: c #5a5f58",
"K: c #5e6159",
"L: c #5b5e56",
"M: c #5d6159",
"N: c #5c5f57",
"O: c #63645b",
"P: c #606259",
"Q: c #5f6158",
"R: c #5b5d55",
"S: c #4f524b",
"T: c #323430",
"      T:S:R:Q:P:O:N:M:L:K:K:J:I:H:G:F:E:D:C:B:A:;:::9:8:7:      ",
"    6:5:4:3:3:2:2:1:0:z90:z9y9x9z93:w93:0:v9z90:2:w9u9t9s9r9    ",
"  q9q9p9o9n9n9n9n9o9o9o9m9m9l9k9k9k9j9j9j9i9i9i9h9g9f9e9d9c9b9  ",
"a9Z9Y9X9W9W9W9V9U9U9U9T9T9T9S9S9R9R9Q9Q9Q9m9P9O9O9N9N9i9h9M9L9K9",
"J9I9H9V9W9U9G9F9F9E9E9E9D9D9D9C9C9C9B9m9P9O9O9N9N9i9i9h9h9A9;9:9",
"998979V9U96959493939393929191909z8y8x8w8v8v8j9i9i9h9h9u8u8A9t8s8",
"r8q8p8U9o8n8m8l8k8j8i8h8g8f8e8d8c8b8a8Z8Y8X8W8g9h9h9u8V8V8A9U8T8",
"S8R8Q8U9o8P8O8N8M8L8K8J8I8H8G8F8E8D8C8B8A8;8:89888u8V8e978685848",
"3828H9T91808z7y7x7w7v7u7t7s7r7q7p7o7n7m7l7k7j7i7h7g77878A9f7e7d7",
"c7b7H9S9n9a7Z7Y7X7W7V7U7T7S7R7Q7P7O7N7M7L7K7J7I7H7G7A9A968f7F7E7",
"D7C7B7S9n9a7A7;7:79787776757476737271707z6y6x6w6v6u6G76868t6s6r6",
"q6p6o6n9o9n6m687l6k6j6i6h9i9h9h9f9g7h6g6f6e6d6c6b6a6Z6f7f7Y6X6W6",
"V6U6T6o9m9S6R6Q6P6O6N6M6h9h9h9u8u8V8L6K6J6I6H6G6F6E6D6t6t6Y6C6B6",
"q6A6;6m9m9w8:69686766656u8h9u8V8V8e9L64636261606z5y5x5w5Y6v5u5t5",
"s5r5;6O9O9q5p5o5n5m5l5k5V8u8V8e978A9j5i5h5g5f5e5d5c5b5a5Z5Y5u5X5",
"W5V5U5O9j9T5S5o5R5Q5P5O5e9e97878N5M5L5K5J5I5H5G5F5E5D5C5B5A5;5:5",
"958575j9i9655545352515057878A9A968z4y4x4w4v4u4t4s4r4q4p4o4n4m4l4",
"k4j4i4i9h9h4g4f4e4d4c4b4A9A96868a4t6w5Z4Y4X4W4V4U4T4S4R4R4Q4P4O4",
"k4N4M4h9h9L4K4J4I4H4G4F4686868f7f7t6w5E4D4C4B4A4;4:4948484Q47464",
"544434u8f9241404z3y3x3w3f7f7v3v3u3w5t3s3r3q3p3o3n3m3R4l3k3l3j3i3",
"h3g334e9e9f3e3d3c3b3a3Z3Y3X3W3V3U3T3S3R3Q3Q3P3O3N3M3L3k3R4K3J3I3",
"H3G3F37878E3D3C3B3A3;3:393837363534333231303z2y2x2w2R4R4v2u2t2s2",
"r2q2p278A9o2n2m2l2k2j2i2h2I5g2f2e2d2c2b2a2Z2Y2X2W2L3R4v2v2v2V2U2",
"T2S2E3A968R2Q2P2O2N2M2L2K2J2I2H2G2F2K2E2D2C2B2A2;2v2v2v2;2;2:292",
"82726268f7524232221202z1y1x1w1v1u1t1s1r1q1p1o1;2v2v2;2;2n1;2m1l1",
"T2k1R2f7t6f7j1i1h1g1g1f1e1d1c1b1a1Z1Y1X1W1V1;2v2;2;2;2n1V1;2U1T1",
"S1R1Q1t6t6Y6Y5P1Q4K3l3O1R4R4v2;2;2;2;2;2v2v2v2;2;2n1n1V1N1n1M1L1",
"K1J1I1H1Y6v5G1Y5Y5P1F184Q484l3k3R4R4v2v2v2;2;2;2n1n1n1N1N1E1D1C1",
"B1A1;1:1919191F1F18484l3l3k3R4R4v2v2v2;2;2n1V1V1N1N1N18181716151",
"  41312111010101z0z0y0y0x0w0w0v0v0v0v0v0v0u0t0s0s0s0r0q0p0o0n0  ",
"    m0l0k0j0i0h0g0f0e0d0c0b0a0Z0Y0X0W0V0U0T0T0S0R0Q0P0O0N0M0    ",
"      L0K0J0I0H0G0F0E0D0D0D0C0B0A0;0:090807060504030201000      "};
